<?xml version="1.0" encoding="utf-8"?>
<!-- Generator: Adobe Illustrator 13.0.0, SVG Export Plug-In . SVG Version: 6.00 Build 14948)  -->
<!DOCTYPE svg PUBLIC "-//W3C//DTD SVG 1.1//EN" "http://www.w3.org/Graphics/SVG/1.1/DTD/svg11.dtd">
<svg version="1.1" id="Layer_1" xmlns="http://www.w3.org/2000/svg" xmlns:xlink="http://www.w3.org/1999/xlink" x="0px" y="0px"
	 width="128px" height="128px" viewBox="0 0 128 128" enable-background="new 0 0 128 128" xml:space="preserve">
<g>
	<g>
		<path fill="#B38000" d="M88.496,124.358c-10.854,0-17.684-0.584-21.626-3.451c-3.942,2.867-10.772,3.451-21.626,3.451
			c-15.813,0-31.25-0.988-31.25-12.801c0-4.873,2.848-9.37,7.926-12.666C13.621,88.789,9.083,76.165,9.083,63.009
			c0-31.2,25.382-56.584,56.583-56.584s56.582,25.384,56.582,56.584c0,12.702-4.26,24.974-12.053,34.906
			c6.112,3.352,9.551,8.206,9.551,13.643C119.746,123.37,104.309,124.358,88.496,124.358L88.496,124.358z"/>
		<path fill="#231F20" d="M65.666,8.925c29.87,0,54.083,24.215,54.083,54.083c0,13.717-5.109,26.242-13.526,35.775
			c6.975,2.891,11.024,7.535,11.024,12.774c0,8.764-11.333,10.302-28.75,10.302c-12.437,0-18.929-0.786-21.627-4.424
			c-2.698,3.638-9.19,4.424-21.625,4.424c-17.417,0-28.75-1.538-28.75-10.302c0-4.795,3.394-9.087,9.313-11.998
			c-8.831-9.626-14.224-22.458-14.224-36.551C11.584,33.14,35.798,8.925,65.666,8.925 M65.666,3.925
			c-32.578,0-59.082,26.505-59.082,59.083c0,12.846,4.143,25.208,11.767,35.386c-4.416,3.587-6.857,8.186-6.857,13.163
			c0,4.497,1.982,10.442,11.428,13.232c4.91,1.45,11.586,2.069,22.323,2.069c10.38,0,17.151-0.52,21.625-2.968
			c4.475,2.448,11.246,2.968,21.627,2.968c10.736,0,17.412-0.619,22.323-2.069c9.444-2.79,11.427-8.735,11.427-13.232
			c0-5.603-2.999-10.624-8.409-14.34c7.072-9.949,10.911-21.886,10.911-34.209C124.749,30.43,98.244,3.925,65.666,3.925
			L65.666,3.925z"/>
	</g>
	<g>
		<radialGradient id="SVGID_1_" cx="95.7441" cy="87.3125" r="39.3522" gradientUnits="userSpaceOnUse">
			<stop  offset="0.8242" style="stop-color:#CE8402"/>
			<stop  offset="0.8352" style="stop-color:#AD6800"/>
		</radialGradient>
		<path fill="url(#SVGID_1_)" stroke="#231F20" stroke-width="3" stroke-linecap="round" stroke-linejoin="round" d="
			M65.316,111.558c0,8.764,5.763,10.302,23.181,10.302c17.417,0,28.75-1.538,28.75-10.302c0-8.767-11.333-15.873-28.75-15.873
			C71.079,95.685,65.316,102.791,65.316,111.558z"/>
		<g>
			<radialGradient id="SVGID_2_" cx="83.1787" cy="48.2856" r="70.5353" gradientUnits="userSpaceOnUse">
				<stop  offset="0.8242" style="stop-color:#FFD173"/>
				<stop  offset="0.8352" style="stop-color:#FFAA00"/>
			</radialGradient>
			<path fill="url(#SVGID_2_)" d="M65.666,118.592c-30.649,0-55.582-24.935-55.582-55.584S35.017,7.425,65.666,7.425
				c30.649,0,55.583,24.933,55.583,55.583S96.315,118.592,65.666,118.592L65.666,118.592z"/>
			<path fill="#231F20" d="M65.666,8.925c29.87,0,54.083,24.215,54.083,54.083c0,29.87-24.213,54.083-54.083,54.083
				c-29.868,0-54.082-24.214-54.082-54.083C11.584,33.14,35.798,8.925,65.666,8.925 M65.666,5.925
				c-31.475,0-57.082,25.607-57.082,57.083s25.607,57.083,57.082,57.083c31.476,0,57.083-25.607,57.083-57.083
				S97.142,5.925,65.666,5.925L65.666,5.925z"/>
		</g>
		<radialGradient id="SVGID_3_" cx="52.769" cy="79.5859" r="47.3642" gradientUnits="userSpaceOnUse">
			<stop  offset="0.8242" style="stop-color:#CE8402"/>
			<stop  offset="0.8352" style="stop-color:#AD6800"/>
		</radialGradient>
		<path fill="url(#SVGID_3_)" stroke="#231F20" stroke-width="3" stroke-linecap="round" stroke-linejoin="round" d="
			M68.427,111.558c0,8.764-5.765,10.302-23.182,10.302s-28.75-1.538-28.75-10.302c0-8.767,11.333-15.873,28.75-15.873
			S68.427,102.791,68.427,111.558z"/>
	</g>
	<ellipse fill="#231F20" cx="82.119" cy="46.963" rx="7.289" ry="13.427"/>
	<ellipse fill="#231F20" cx="59.583" cy="46.963" rx="7.289" ry="13.427"/>
</g>
</svg>
